<svg width="24" height="24" fill="none" xmlns="http://www.w3.org/2000/svg"><path d="M8 2a2 2 0 00-2 2v1.56h2V4h1.56V2H8zM8 17h1.56v2H8a2 2 0 01-2-2v-1.56h2V17zM13.52 19h-2v-2h2v2zM11.52 2v2h2V2h-2zM15.48 2v2h2V2h-2zM19.44 2v2H21v1.56h2V4a2 2 0 00-2-2h-1.56zM17.48 17h-2v2h2v-2zM19.44 19H21a2 2 0 002-2v-1.56h-2V17h-1.56v2zM23 7.52h-2v2h2v-2zM8 7.52H6v2h2v-2zM8 13.48H6v-2h2v2zM23 13.48h-2v-2h2v2z" fill="#A7A7A7"/><path fill-rule="evenodd" clip-rule="evenodd" d="M3 5a2 2 0 00-2 2v13c0 1.1.9 2 2 2h13a2 2 0 002-2V7a2 2 0 00-2-2H3zm13 2H3v13h13V7z" fill="#767676"/></svg>